<svg width="11" height="11" viewBox="0 0 11 11" fill="none" xmlns="http://www.w3.org/2000/svg">
<g clip-path="url(#clip0_4631_34697)">
<path d="M0.293984 0.29413C0.387217 0.20088 0.497905 0.12691 0.619728 0.0764425C0.74155 0.0259753 0.872121 0 1.00398 0C1.13585 0 1.26642 0.0259753 1.38824 0.0764425C1.51006 0.12691 1.62075 0.20088 1.71398 0.29413L10.705 9.28613C10.8933 9.47443 10.9991 9.72983 10.9991 9.99613C10.9991 10.2624 10.8933 10.5178 10.705 10.7061C10.5167 10.8944 10.2613 11.0002 9.99498 11.0002C9.72868 11.0002 9.47329 10.8944 9.28498 10.7061L0.294984 1.71413C0.201735 1.6209 0.127764 1.51021 0.077297 1.38839C0.0268298 1.26656 0.000854492 1.13599 0.000854492 1.00413C0.000854492 0.872267 0.0268298 0.741696 0.077297 0.619873C0.127764 0.49805 0.200735 0.387362 0.293984 0.29413Z" fill="white"/>
<path d="M0.294984 10.7061C0.201735 10.6129 0.127764 10.5022 0.077297 10.3803C0.0268298 10.2585 0.000854492 10.128 0.000854492 9.99609C0.000854492 9.86423 0.0268298 9.73366 0.077297 9.61184C0.127764 9.49001 0.201735 9.37932 0.294984 9.28609L9.28598 0.294092C9.47429 0.105788 9.72968 0 9.99598 0C10.2623 0 10.5177 0.105788 10.706 0.294092C10.8943 0.482395 11.0001 0.73779 11.0001 1.00409C11.0001 1.27039 10.8943 1.52579 10.706 1.71409L1.71398 10.7061C1.62075 10.7993 1.51006 10.8733 1.38824 10.9238C1.26642 10.9742 1.13585 11.0002 1.00398 11.0002C0.872121 11.0002 0.74155 10.9742 0.619728 10.9238C0.497905 10.8733 0.388216 10.7993 0.294984 10.7061Z" fill="white"/>
</g>
<defs>
<clipPath id="clip0_4631_34697">
<rect width="11" height="11" fill="white"/>
</clipPath>
</defs>
</svg>
