<svg width="40" height="40" viewBox="0 0 40 40" fill="none" xmlns="http://www.w3.org/2000/svg">
<g clip-path="url(#clip0_69_238)">
<path d="M34.1232 2.53258C34.0959 2.17055 33.7803 1.89914 33.4182 1.92656C33.0562 1.9539 32.7848 2.26953 32.8122 2.63156C32.9524 4.48828 32.7537 7.1964 31.0108 9.5539C29.2654 11.9148 26.7898 12.7361 25.4598 13.1774C23.4903 13.8308 21.6823 14.001 20.0054 13.957C20.1523 13.6399 20.235 13.287 20.235 12.9151C20.235 11.757 19.4392 10.7813 18.3659 10.506V9.6489H21.8759C23.205 9.6489 24.2862 8.56758 24.2862 7.23851V6.53734C24.2862 6.17422 23.992 5.88 23.6289 5.88H20.4298L21.7452 1.63711C21.8652 1.24976 21.7962 0.840311 21.5555 0.513905C21.3149 0.187499 20.9444 0.000311219 20.5388 0.000311219H17.0511C16.688 0.000311219 16.3937 0.29453 16.3937 0.657655C16.3937 1.02078 16.688 1.315 17.0511 1.315H20.4686L19.0534 5.88008H16.343L14.4063 0.437108C14.2847 0.0950768 13.9085 -0.0832044 13.5666 0.0381237C13.2245 0.159842 13.046 0.535858 13.1677 0.877889L14.9476 5.87992H11.8401C11.477 5.87992 11.1827 6.17414 11.1827 6.53726V7.23844C11.1827 8.5675 12.264 9.64883 13.5931 9.64883H17.0513V10.5285C16.0186 10.8307 15.2618 11.7859 15.2618 12.9151C15.2618 13.0981 15.2822 13.2764 15.32 13.4483C12.7095 13.0799 10.4394 12.9012 8.56695 14.6337C8.05734 15.1053 6.85453 16.407 6.69305 18.3035C6.68211 18.432 6.45391 21.4665 8.91039 23.1125C9.88883 23.7681 10.9034 23.9499 11.7277 23.9499C12.0567 23.9499 12.3552 23.9209 12.609 23.8816C12.7997 24.4302 13.1833 24.8891 13.6783 25.177C11.2468 26.527 9.59727 29.1213 9.59727 32.0941C9.59727 33.5654 10.0071 34.9946 10.767 36.2313H8.91766C7.22055 36.2313 5.83984 37.612 5.83984 39.3091V39.3428C5.83984 39.7059 6.13414 40.0002 6.49719 40.0002H28.9719C29.3349 40.0002 29.6292 39.7059 29.6292 39.3428V39.3091C29.6292 37.612 28.2486 36.2313 26.5514 36.2313H12.372C11.4286 35.0621 10.912 33.6044 10.912 32.0941C10.912 28.4596 13.8688 25.5027 17.5033 25.5027C21.1377 25.5027 24.0947 28.4596 24.0947 32.0941C24.0947 32.7862 23.9881 33.4676 23.7778 34.1193C23.6664 34.4648 23.8562 34.8352 24.2017 34.9466C24.5473 35.0581 24.9177 34.8683 25.0291 34.5227C25.2814 33.7404 25.4094 32.9232 25.4094 32.094C25.4094 29.2104 23.8573 26.6829 21.5451 25.3017C22.3966 24.9295 22.9934 24.0795 22.9934 23.0923C22.9934 22.0075 22.273 21.088 21.2855 20.7866C21.1173 19.7022 20.4623 18.7771 19.5517 18.2409C19.9513 17.7995 20.1951 17.2146 20.1951 16.5737C20.1951 16.0933 20.0577 15.6445 19.8207 15.2638C21.6566 15.3235 23.6812 15.1527 25.8737 14.4253C27.2373 13.9729 30.0748 13.0314 32.0678 10.3356C34.1557 7.51164 34.2518 4.23453 34.1232 2.53258ZM12.0589 37.5458C12.0617 37.5458 12.0645 37.5462 12.0673 37.5462C12.0705 37.5462 12.0737 37.5459 12.077 37.5458H26.5516C27.3042 37.5458 27.9483 38.0198 28.2007 38.6852H7.26852C7.52094 38.0199 8.165 37.5458 8.91766 37.5458H12.0589ZM13.593 8.33414C12.989 8.33414 12.4974 7.84258 12.4974 7.23851V7.19469H15.8792H19.5378H22.9716V7.23851C22.9716 7.84265 22.4801 8.33414 21.8759 8.33414H13.593ZM17.5848 11.7558C17.625 11.7634 17.6663 11.7678 17.7086 11.7678C17.7619 11.7678 17.8134 11.7608 17.8631 11.7488C18.4556 11.8066 18.9204 12.3074 18.9204 12.915C18.9204 13.302 18.7309 13.6448 18.4408 13.8584C17.8973 13.8061 17.368 13.7391 16.8515 13.6677C16.6802 13.4639 16.5766 13.2014 16.5766 12.915C16.5765 12.3244 17.016 11.8358 17.5848 11.7558ZM17.7086 15.4016C18.3548 15.4016 18.8805 15.9273 18.8805 16.5735C18.8805 17.2197 18.3548 17.7454 17.7086 17.7454C17.0624 17.7455 16.5367 17.2197 16.5367 16.5735C16.5367 15.9273 17.0624 15.4016 17.7086 15.4016ZM12.5357 22.559C11.9055 22.6738 10.7247 22.7454 9.64227 22.0201C7.82242 20.8006 8.00102 18.4384 8.00305 18.4147C8.12539 16.9763 9.06266 15.9659 9.45984 15.5984C11.0245 14.1505 13.0183 14.4408 15.7777 14.8422C15.8209 14.8485 15.8646 14.8548 15.908 14.8611C15.4834 15.3074 15.222 15.9103 15.222 16.5735C15.222 17.224 15.4733 17.8166 15.8834 18.2601C14.9904 18.7991 14.3495 19.7152 14.1834 20.7863C13.3628 21.0369 12.7272 21.7145 12.5357 22.559ZM20.5831 21.9966C21.1873 21.9966 21.6787 22.488 21.6787 23.0922C21.6787 23.6963 21.1873 24.1878 20.5831 24.1878H14.8859C14.2817 24.1878 13.7902 23.6963 13.7902 23.0922C13.7902 22.488 14.2817 21.9966 14.8859 21.9966H20.5831ZM19.9164 20.6818H15.5527C15.8355 19.7446 16.7065 19.0602 17.7345 19.0602C18.7626 19.0602 19.6334 19.7448 19.9164 20.6818Z" fill="url(#paint0_radial_69_238)"/>
</g>
<defs>
<radialGradient id="paint0_radial_69_238" cx="0" cy="0" r="1" gradientUnits="userSpaceOnUse" gradientTransform="translate(20.0002 6.12696e-05) scale(14.1604 34.6773)">
<stop stop-color="#FCF08D"/>
<stop offset="1" stop-color="#A7672D"/>
</radialGradient>
<clipPath id="clip0_69_238">
<rect width="40" height="40" fill="white"/>
</clipPath>
</defs>
</svg>
