<svg width="141" height="14" viewBox="0 0 141 14" fill="none" xmlns="http://www.w3.org/2000/svg">
<path opacity="0.2" d="M4.40998 3.00591L6.53398 0.665909H7.57798L7.39798 0.88191C5.77798 2.66991 4.35598 4.22991 3.13198 5.56191L2.14198 6.62391L2.33998 6.92991C2.39998 7.03791 3.28198 8.13591 4.98598 10.2239C6.59398 12.2039 7.40998 13.2239 7.43398 13.2839C7.44598 13.3079 7.43398 13.3259 7.39798 13.3379C7.36198 13.3499 7.31398 13.3559 7.25398 13.3559C7.19398 13.3679 7.12798 13.3739 7.05598 13.3739C6.85198 13.3739 6.70798 13.3439 6.62398 13.2839C6.53998 13.2239 6.38398 13.0499 6.15598 12.7619C6.04798 12.6299 5.21998 11.6099 3.67198 9.70191L1.69198 7.27191C1.30798 7.66791 0.743977 8.26191 -2.2985e-05 9.05391V8.53191C-2.2985e-05 8.27991 0.017977 8.09991 0.0539771 7.99191C0.101977 7.88391 0.227977 7.72191 0.431977 7.50591C1.64398 6.11391 2.96998 4.61391 4.40998 3.00591ZM15.5925 1.24191L15.8445 0.55791H16.2945C16.4985 0.55791 16.6305 0.56991 16.6905 0.593909C16.7505 0.61791 16.8045 0.68991 16.8525 0.80991C18.5805 5.63391 19.4925 8.10591 19.5885 8.22591C19.6245 8.27391 19.9365 9.11391 20.5245 10.7459C21.1245 12.3659 21.4245 13.1999 21.4245 13.2479C21.4245 13.2719 21.2865 13.2839 21.0105 13.2839H20.5965L19.3545 9.79191C18.5745 7.58391 18.0705 6.22791 17.8425 5.72391C17.6145 5.20791 17.3265 4.43991 16.9785 3.41991C16.5585 2.27991 16.3305 1.70991 16.2945 1.70991C16.2585 1.70991 16.1865 1.87191 16.0785 2.19591C15.9705 2.50791 15.9045 2.74191 15.8805 2.89791C15.8565 3.07791 15.2385 4.84191 14.0265 8.18991L12.2085 13.2839H11.7945C11.5185 13.2839 11.3805 13.2779 11.3805 13.2659C11.3805 13.2419 12.5205 10.0679 14.8005 3.74391C15.1605 2.77191 15.3405 2.22591 15.3405 2.10591C15.3405 1.97391 15.4245 1.68591 15.5925 1.24191ZM27.7243 0.79191C28.1083 0.69591 28.4683 0.64791 28.8043 0.64791C29.5723 0.64791 30.2683 0.84591 30.8923 1.24191C31.5283 1.62591 31.9723 2.14791 32.2243 2.80791C32.3563 3.17991 32.4223 3.41991 32.4223 3.52791C32.4223 3.67191 32.2963 3.74391 32.0443 3.74391C31.8763 3.74391 31.7683 3.73191 31.7203 3.70791C31.6723 3.67191 31.6483 3.60591 31.6483 3.50991C31.6483 3.32991 31.5583 3.07791 31.3783 2.75391C31.2103 2.42991 31.0423 2.19591 30.8743 2.05191C30.4663 1.71591 29.9563 1.50591 29.3443 1.42191C29.1043 1.39791 28.9183 1.38591 28.7863 1.38591C28.1983 1.38591 27.6643 1.51191 27.1843 1.76391C26.7163 2.01591 26.3683 2.36391 26.1403 2.80791C26.0203 3.03591 25.9603 3.27591 25.9603 3.52791C25.9603 3.55191 25.9603 3.59991 25.9603 3.67191C25.9723 3.74391 25.9783 3.80391 25.9783 3.85191C26.0023 4.29591 26.1103 4.63191 26.3023 4.85991C26.5183 5.12391 26.8123 5.35791 27.1843 5.56191C27.5683 5.75391 28.1563 5.96991 28.9483 6.20991C29.8363 6.48591 30.4723 6.72591 30.8563 6.92991C31.2403 7.12191 31.5763 7.36791 31.8643 7.66791C32.3683 8.19591 32.6203 8.77191 32.6203 9.39591C32.6203 9.49191 32.5963 9.55791 32.5483 9.59391C32.5123 9.61791 32.4103 9.62991 32.2423 9.62991C32.0623 9.62991 31.9483 9.61791 31.9003 9.59391C31.8643 9.55791 31.8463 9.46191 31.8463 9.30591C31.8343 8.77791 31.5943 8.32791 31.1263 7.95591C30.6583 7.58391 29.8843 7.24191 28.8043 6.92991C27.5563 6.55791 26.6623 6.15591 26.1223 5.72391C25.5943 5.27991 25.2943 4.70391 25.2223 3.99591C25.2223 3.95991 25.2163 3.91191 25.2043 3.85191C25.2043 3.79191 25.2043 3.74991 25.2043 3.72591C25.2043 3.04191 25.4623 2.41791 25.9783 1.85391C26.4463 1.33791 27.0283 0.98391 27.7243 0.79191ZM40.5851 1.24191L40.8371 0.55791H41.2871C41.4911 0.55791 41.6231 0.56991 41.6831 0.593909C41.7431 0.61791 41.7971 0.68991 41.8451 0.80991C43.5731 5.63391 44.4851 8.10591 44.5811 8.22591C44.6171 8.27391 44.9291 9.11391 45.5171 10.7459C46.1171 12.3659 46.4171 13.1999 46.4171 13.2479C46.4171 13.2719 46.2791 13.2839 46.0031 13.2839H45.5891L44.3471 9.79191C43.5671 7.58391 43.0631 6.22791 42.8351 5.72391C42.6071 5.20791 42.3191 4.43991 41.9711 3.41991C41.5511 2.27991 41.3231 1.70991 41.2871 1.70991C41.2511 1.70991 41.1791 1.87191 41.0711 2.19591C40.9631 2.50791 40.8971 2.74191 40.8731 2.89791C40.8491 3.07791 40.2311 4.84191 39.0191 8.18991L37.2011 13.2839H36.7871C36.5111 13.2839 36.3731 13.2779 36.3731 13.2659C36.3731 13.2419 37.5131 10.0679 39.7931 3.74391C40.1531 2.77191 40.3331 2.22591 40.3331 2.10591C40.3331 1.97391 40.4171 1.68591 40.5851 1.24191ZM50.1429 4.64391L50.1069 -9.05991e-05H50.8629L53.6349 3.79791C55.2189 5.96991 56.5449 7.82991 57.6129 9.37791L58.8009 11.1599C58.8009 10.9679 58.8129 10.6739 58.8369 10.2779C58.8609 9.88191 58.8729 9.58791 58.8729 9.39591H59.6289V9.80991C59.6289 10.0139 59.6529 10.5479 59.7009 11.4119L59.7549 12.5999H59.3589C59.1549 12.5999 59.0109 12.5579 58.9269 12.4739C58.8429 12.4019 58.6329 12.1319 58.2969 11.6639C58.1889 11.5079 57.9429 11.1599 57.5589 10.6199C57.1869 10.0799 56.6769 9.35391 56.0289 8.44191C55.3809 7.52991 54.8169 6.73191 54.3369 6.04791C52.1409 2.92791 51.0189 1.34391 50.9709 1.29591C50.9349 1.27191 50.9169 1.47591 50.9169 1.90791C50.9049 2.18391 50.8989 2.57391 50.8989 3.07791C50.8989 3.25791 50.8989 3.59991 50.8989 4.10391C50.9109 4.59591 50.9169 5.00391 50.9169 5.32791L50.9529 9.44991L50.6289 9.41391C50.3889 9.38991 50.2569 9.36591 50.2329 9.34191C50.1969 9.30591 50.1669 7.73991 50.1429 4.64391ZM63.4742 1.52991V0.755909L65.9222 0.79191C67.2782 0.81591 68.1602 0.863909 68.5682 0.935909C68.9762 0.99591 69.4622 1.17591 70.0262 1.47591C71.2862 2.14791 72.1262 3.31791 72.5462 4.98591C72.6662 5.45391 72.7262 6.16791 72.7262 7.12791C72.7262 7.88391 72.6842 8.44791 72.6002 8.81991C72.4202 9.65991 72.0782 10.4279 71.5742 11.1239C71.0822 11.8079 70.5002 12.3179 69.8282 12.6539C69.2882 12.9179 68.7602 13.0859 68.2442 13.1579C67.7282 13.2419 66.8582 13.2839 65.6342 13.2839H63.4742V12.6359L65.7422 12.5819C67.2182 12.5459 68.1422 12.4739 68.5142 12.3659C70.2542 11.8739 71.3462 10.7039 71.7902 8.85591C71.8982 8.42391 71.9522 7.82391 71.9522 7.05591C71.9522 6.25191 71.8922 5.60991 71.7722 5.12991C71.3282 3.46191 70.3742 2.35191 68.9102 1.79991C68.6702 1.71591 68.3882 1.66191 68.0642 1.63791C67.7402 1.61391 67.0262 1.58991 65.9222 1.56591L63.4742 1.52991ZM76.4363 1.40391V0.62991L78.4883 0.665909C79.6643 0.68991 80.4563 0.74991 80.8643 0.845909C81.2723 0.941909 81.6803 1.16991 82.0883 1.52991C82.5923 1.97391 82.9463 2.53791 83.1503 3.22191C83.2343 3.48591 83.2763 3.83991 83.2763 4.28391C83.2763 4.95591 83.1863 5.48991 83.0063 5.88591C82.8743 6.18591 82.6523 6.50391 82.3403 6.83991C82.0283 7.17591 81.7283 7.41591 81.4403 7.55991L80.9723 7.79391L81.1703 8.20791C81.2183 8.27991 81.4523 8.71791 81.8723 9.52191C82.3043 10.3259 82.7303 11.1059 83.1503 11.8619C83.5703 12.6299 83.7983 13.0499 83.8343 13.1219C83.8463 13.1699 83.7083 13.1939 83.4203 13.1939H82.9523C82.3283 12.0299 81.3923 10.2959 80.1443 7.99191H76.4363V7.23591L78.4523 7.19991C79.3523 7.17591 79.9343 7.15191 80.1983 7.12791C80.4623 7.10391 80.6903 7.04991 80.8823 6.96591C81.8663 6.49791 82.4003 5.72391 82.4843 4.64391C82.4963 4.57191 82.5023 4.46391 82.5023 4.31991C82.5023 3.09591 82.0103 2.24391 81.0263 1.76391L80.4503 1.47591C80.0063 1.46391 79.3343 1.45191 78.4343 1.43991C77.5463 1.42791 76.8803 1.41591 76.4363 1.40391ZM93.7803 1.67391C93.4803 1.58991 93.1323 1.54791 92.7363 1.54791C91.9323 1.54791 91.2363 1.72191 90.6483 2.06991C90.3963 2.22591 90.1203 2.45991 89.8203 2.77191C89.5203 3.08391 89.2863 3.38391 89.1183 3.67191C88.6863 4.39191 88.4463 5.39391 88.3983 6.67791V7.16391C88.3983 8.92791 88.8543 10.2839 89.7663 11.2319C90.5583 12.0719 91.5123 12.4919 92.6283 12.4919C92.6763 12.4919 92.7423 12.4859 92.8263 12.4739C92.9103 12.4739 92.9763 12.4739 93.0243 12.4739C93.9603 12.4139 94.7643 12.0719 95.4363 11.4479C96.1083 10.8239 96.5883 9.97791 96.8763 8.90991C96.9843 8.48991 97.0383 7.88991 97.0383 7.10991C97.0383 6.22191 96.9783 5.56191 96.8583 5.12991C96.6183 4.24191 96.2283 3.49191 95.6883 2.87991C95.1483 2.26791 94.5123 1.86591 93.7803 1.67391ZM91.6023 0.89991C91.8903 0.82791 92.2263 0.79191 92.6103 0.79191C93.2703 0.79191 93.8343 0.87591 94.3023 1.04391C95.5263 1.47591 96.4563 2.33991 97.0923 3.63591C97.3683 4.21191 97.5543 4.73991 97.6503 5.21991C97.7463 5.68791 97.7943 6.30591 97.7943 7.07391C97.7823 8.47791 97.5303 9.64191 97.0383 10.5659C96.5943 11.4179 95.9763 12.0779 95.1843 12.5459C94.3923 13.0139 93.5523 13.2479 92.6643 13.2479C91.2963 13.2479 90.1563 12.7559 89.2443 11.7719C88.1403 10.5719 87.5883 8.98791 87.5883 7.01991C87.5883 5.75991 87.8163 4.65591 88.2723 3.70791C88.6203 2.97591 89.0823 2.36391 89.6583 1.87191C90.2463 1.37991 90.8943 1.05591 91.6023 0.89991ZM108.681 1.15191C108.729 1.06791 108.909 1.02591 109.221 1.02591C109.401 1.02591 109.491 1.04991 109.491 1.09791C109.491 1.18191 108.765 3.22791 107.313 7.23591L105.117 13.3019L104.685 13.2659L104.253 13.2479L102.867 9.43191C101.979 6.98391 101.535 5.67591 101.535 5.50791C101.535 5.42391 101.643 5.38191 101.859 5.38191C102.111 5.38191 102.255 5.43591 102.291 5.54391C102.315 5.65191 102.675 6.70791 103.371 8.71191C104.079 10.7039 104.475 11.7959 104.559 11.9879C104.595 12.0719 104.625 12.1319 104.649 12.1679C104.685 12.2159 104.709 12.2339 104.721 12.2219C104.733 12.2099 106.053 8.51991 108.681 1.15191ZM113.177 7.52391L113.159 1.25991H114.023C114.023 2.65191 114.017 4.74591 114.005 7.54191C113.993 10.3259 113.987 12.4139 113.987 13.8059H113.213L113.177 7.52391ZM121.555 0.917909C121.927 0.809909 122.329 0.755909 122.761 0.755909C123.685 0.755909 124.501 0.95991 125.209 1.36791C125.761 1.67991 126.277 2.15991 126.757 2.80791C127.237 3.44391 127.483 3.98991 127.495 4.44591V4.57191C127.495 4.66791 127.477 4.72791 127.441 4.75191C127.405 4.77591 127.321 4.79991 127.189 4.82391C126.985 4.84791 126.865 4.81791 126.829 4.73391C126.649 4.20591 126.499 3.83391 126.379 3.61791C126.259 3.38991 126.061 3.13191 125.785 2.84391C125.425 2.44791 125.017 2.13591 124.561 1.90791C124.261 1.76391 124.027 1.67991 123.859 1.65591C123.703 1.61991 123.367 1.60191 122.851 1.60191C122.323 1.60191 121.975 1.61991 121.807 1.65591C121.651 1.67991 121.393 1.78191 121.033 1.96191C120.193 2.36991 119.539 3.05391 119.071 4.01391C118.651 4.85391 118.441 5.81391 118.441 6.89391C118.441 6.94191 118.441 7.02591 118.441 7.14591C118.453 7.26591 118.459 7.35591 118.459 7.41591C118.507 8.75991 118.801 9.85191 119.341 10.6919C119.653 11.1839 120.067 11.5979 120.583 11.9339C121.111 12.2819 121.645 12.4919 122.185 12.5639L122.707 12.6179V12.9959C122.707 13.1519 122.695 13.2539 122.671 13.3019C122.647 13.3499 122.593 13.3739 122.509 13.3739H122.437C122.173 13.3619 121.825 13.2839 121.393 13.1399C120.961 13.0079 120.607 12.8639 120.331 12.7079C119.767 12.3599 119.263 11.8799 118.819 11.2679C118.387 10.6559 118.075 9.97191 117.883 9.21591C117.763 8.71191 117.703 7.99791 117.703 7.07391C117.703 6.14991 117.763 5.43591 117.883 4.93191C118.159 3.91191 118.621 3.04791 119.269 2.33991C119.917 1.63191 120.679 1.15791 121.555 0.917909ZM131.191 13.2839V0.77391H131.965V13.2839H131.191ZM139.525 1.65591V0.77391H140.317V13.2839H139.525V11.3039C139.525 9.71991 139.519 8.75991 139.507 8.42391L139.489 7.50591L137.761 7.48791C136.957 7.47591 136.465 7.46391 136.285 7.45191C136.117 7.42791 136.027 7.36791 136.015 7.27191C136.003 7.19991 135.997 7.10991 135.997 7.00191C135.997 6.85791 136.081 6.77391 136.249 6.74991C136.417 6.72591 136.915 6.70191 137.743 6.67791L139.489 6.64191L139.507 4.60791C139.519 3.85191 139.525 2.86791 139.525 1.65591Z" fill="white"/>
</svg>
